<mxfile host="app.diagrams.net" modified="2024-02-08T02:13:50.012Z" agent="Mozilla/5.0 (Windows NT 10.0; Win64; x64) AppleWebKit/537.36 (KHTML, like Gecko) Chrome/121.0.0.0 Safari/537.36" etag="VKLALEvsoTyzCZ5CoSLW" version="22.1.15" type="github">
  <diagram name="Page-1" id="PXh9gSuJKoSi4YBRibyQ">
    <mxGraphModel dx="1410" dy="815" grid="1" gridSize="10" guides="1" tooltips="1" connect="1" arrows="1" fold="1" page="1" pageScale="1" pageWidth="850" pageHeight="1100" math="0" shadow="0">
      <root>
        <mxCell id="0" />
        <mxCell id="1" parent="0" />
        <mxCell id="A2ieCrt4r_YOH6A9gJdZ-1" value="" style="outlineConnect=0;dashed=0;verticalLabelPosition=bottom;verticalAlign=top;align=center;html=1;shape=mxgraph.aws3.elastic_ip;fillColor=#F58534;gradientColor=none;rotation=-90;" vertex="1" parent="1">
          <mxGeometry x="364.31" y="207.07" width="108.25" height="38.62" as="geometry" />
        </mxCell>
        <mxCell id="A2ieCrt4r_YOH6A9gJdZ-2" value="Windows Instance" style="outlineConnect=0;dashed=0;verticalLabelPosition=bottom;verticalAlign=top;align=center;html=1;shape=mxgraph.aws3.ec2;fillColor=#F58534;gradientColor=none;fontSize=18;" vertex="1" parent="1">
          <mxGeometry x="240" y="480" width="76.5" height="93" as="geometry" />
        </mxCell>
        <mxCell id="A2ieCrt4r_YOH6A9gJdZ-3" value="&lt;font style=&quot;font-size: 18px;&quot;&gt;Ubuntu Instance&lt;/font&gt;" style="outlineConnect=0;dashed=0;verticalLabelPosition=bottom;verticalAlign=top;align=center;html=1;shape=mxgraph.aws3.ec2;fillColor=#F58534;gradientColor=none;" vertex="1" parent="1">
          <mxGeometry x="520" y="480" width="76.5" height="93" as="geometry" />
        </mxCell>
        <mxCell id="A2ieCrt4r_YOH6A9gJdZ-4" value="" style="image;aspect=fixed;perimeter=ellipsePerimeter;html=1;align=center;shadow=0;dashed=0;spacingTop=3;image=img/lib/active_directory/tunnel.svg;" vertex="1" parent="1">
          <mxGeometry x="150" y="521.5" width="100" height="20" as="geometry" />
        </mxCell>
        <mxCell id="A2ieCrt4r_YOH6A9gJdZ-5" value="" style="outlineConnect=0;dashed=0;verticalLabelPosition=bottom;verticalAlign=top;align=center;html=1;shape=mxgraph.aws3.lambda_function;fillColor=#F58534;gradientColor=none;" vertex="1" parent="1">
          <mxGeometry x="460" y="280" width="69" height="72" as="geometry" />
        </mxCell>
        <mxCell id="A2ieCrt4r_YOH6A9gJdZ-7" value="" style="outlineConnect=0;dashed=0;verticalLabelPosition=bottom;verticalAlign=top;align=center;html=1;shape=mxgraph.aws3.internet_gateway;fillColor=#F58534;gradientColor=none;" vertex="1" parent="1">
          <mxGeometry x="360" y="41" width="120" height="119" as="geometry" />
        </mxCell>
        <mxCell id="A2ieCrt4r_YOH6A9gJdZ-8" value="" style="outlineConnect=0;dashed=0;verticalLabelPosition=bottom;verticalAlign=top;align=center;html=1;shape=mxgraph.aws3.virtual_private_cloud;fillColor=#F58534;gradientColor=none;" vertex="1" parent="1">
          <mxGeometry x="360" y="300" width="120" height="90" as="geometry" />
        </mxCell>
        <mxCell id="A2ieCrt4r_YOH6A9gJdZ-11" value="" style="html=1;verticalLabelPosition=bottom;align=center;labelBackgroundColor=#ffffff;verticalAlign=top;strokeWidth=2;strokeColor=#0080F0;shadow=0;dashed=0;shape=mxgraph.ios7.icons.home;" vertex="1" parent="1">
          <mxGeometry x="80" y="480" width="80" height="80" as="geometry" />
        </mxCell>
        <mxCell id="A2ieCrt4r_YOH6A9gJdZ-13" value="Your Mom&#39;s House" style="text;html=1;align=center;verticalAlign=middle;resizable=0;points=[];autosize=1;strokeColor=none;fillColor=none;" vertex="1" parent="1">
          <mxGeometry x="60" y="560" width="120" height="30" as="geometry" />
        </mxCell>
        <mxCell id="A2ieCrt4r_YOH6A9gJdZ-17" style="edgeStyle=orthogonalEdgeStyle;rounded=0;orthogonalLoop=1;jettySize=auto;html=1;exitX=1;exitY=0.5;exitDx=0;exitDy=0;exitPerimeter=0;entryX=0.07;entryY=0.93;entryDx=0;entryDy=0;entryPerimeter=0;" edge="1" parent="1" source="A2ieCrt4r_YOH6A9gJdZ-2" target="A2ieCrt4r_YOH6A9gJdZ-8">
          <mxGeometry relative="1" as="geometry" />
        </mxCell>
        <mxCell id="A2ieCrt4r_YOH6A9gJdZ-19" value="Private Subnet" style="edgeLabel;html=1;align=center;verticalAlign=middle;resizable=0;points=[];" vertex="1" connectable="0" parent="A2ieCrt4r_YOH6A9gJdZ-17">
          <mxGeometry x="0.4073" y="-3" relative="1" as="geometry">
            <mxPoint as="offset" />
          </mxGeometry>
        </mxCell>
        <mxCell id="A2ieCrt4r_YOH6A9gJdZ-18" style="edgeStyle=orthogonalEdgeStyle;rounded=0;orthogonalLoop=1;jettySize=auto;html=1;exitX=0;exitY=0.5;exitDx=0;exitDy=0;exitPerimeter=0;entryX=0.93;entryY=0.93;entryDx=0;entryDy=0;entryPerimeter=0;" edge="1" parent="1" source="A2ieCrt4r_YOH6A9gJdZ-3" target="A2ieCrt4r_YOH6A9gJdZ-8">
          <mxGeometry relative="1" as="geometry" />
        </mxCell>
        <mxCell id="A2ieCrt4r_YOH6A9gJdZ-20" value="Public Subnet" style="edgeLabel;html=1;align=center;verticalAlign=middle;resizable=0;points=[];" vertex="1" connectable="0" parent="A2ieCrt4r_YOH6A9gJdZ-18">
          <mxGeometry x="0.4174" y="-3" relative="1" as="geometry">
            <mxPoint y="1" as="offset" />
          </mxGeometry>
        </mxCell>
      </root>
    </mxGraphModel>
  </diagram>
</mxfile>
